<?xml version="1.0" standalone="no"?>
<!DOCTYPE svg PUBLIC "-//W3C//DTD SVG 20010904//EN"
 "http://www.w3.org/TR/2001/REC-SVG-20010904/DTD/svg10.dtd">
<svg version="1.0" xmlns="http://www.w3.org/2000/svg"
 width="260.000000pt" height="260.000000pt" viewBox="0 0 260.000000 260.000000"
 preserveAspectRatio="xMidYMid meet">
<metadata>
Created by potrace 1.11, written by Peter Selinger 2001-2013
</metadata>
<g transform="translate(0.000000,260.000000) scale(0.100000,-0.100000)"
fill="#000000" stroke="none">
<path d="M0 1300 l0 -1300 839 0 c791 0 840 1 844 18 4 16 5 16 6 0 1 -17 30
-18 456 -18 l455 0 0 277 c0 249 -2 278 -17 297 -17 20 -17 20 0 7 16 -13 17
36 17 1003 l0 1016 -1300 0 -1300 0 0 -1300z m134 34 c19 -18 21 -55 4 -72
-15 -15 -61 -15 -76 0 -28 28 -2 88 38 88 10 0 26 -7 34 -16z m2400 0 c19 -18
21 -55 4 -72 -15 -15 -61 -15 -76 0 -28 28 -2 88 38 88 10 0 26 -7 34 -16z
m-1143 -228 c5 3 9 0 9 -6 0 -7 -7 -9 -16 -6 -9 3 -18 6 -20 6 -3 0 -2 5 2 12
6 9 9 9 12 0 2 -7 8 -10 13 -6z m29 -51 c-7 -9 -15 -13 -19 -10 -3 3 1 10 9
15 21 14 24 12 10 -5z m44 -20 c3 -9 0 -15 -10 -15 -8 0 -13 4 -10 9 4 5 0 12
-6 14 -8 4 -7 6 3 6 9 1 19 -6 23 -14z m-69 -35 c-3 -5 -12 -10 -18 -10 -7 0
-6 4 3 10 19 12 23 12 15 0z m52 -7 c4 -10 11 -21 17 -25 7 -5 7 -8 -2 -8 -7
0 -16 8 -19 18 -4 9 -11 20 -17 24 -7 5 -7 8 2 8 7 0 16 -8 19 -17z m320 -17
c-4 -9 1 -17 11 -19 12 -3 11 -5 -5 -6 -22 -1 -31 18 -16 32 11 11 15 8 10 -7z
m-266 -36 c5 0 9 5 9 12 0 6 3 8 6 5 4 -4 1 -13 -5 -21 -7 -8 -10 -19 -7 -24
3 -6 -3 -12 -15 -15 -15 -4 -18 -2 -10 7 6 7 9 26 7 42 -2 16 -1 21 1 12 2
-10 9 -18 14 -18z m263 -17 c4 -10 10 -13 14 -8 4 6 13 11 21 13 12 3 12 0 1
-12 -17 -21 -26 -20 -50 4 -14 14 -16 20 -6 20 8 0 17 -8 20 -17z m241 -13
c-3 -5 -14 -10 -23 -10 -15 0 -15 2 -2 10 20 13 33 13 25 0z m-80 -20 c3 -5
-1 -10 -10 -10 -9 0 -13 5 -10 10 3 6 8 10 10 10 2 0 7 -4 10 -10z m-445 -36
c0 -8 -5 -14 -12 -14 -6 0 -8 3 -5 6 3 4 1 16 -5 28 -10 19 -10 20 5 7 10 -7
17 -20 17 -27z m633 -32 c-5 -41 -4 -45 8 -30 19 23 66 40 74 27 4 -5 -3 -29
-14 -52 l-20 -42 27 32 c42 50 112 68 112 29 0 -9 -12 -24 -27 -33 l-27 -18
34 -6 35 -5 -43 -13 c-46 -13 -82 -15 -125 -8 -16 3 -33 0 -41 -8 -12 -12 -17
-11 -32 7 -11 12 -13 18 -6 14 6 -4 12 -2 12 4 0 6 4 9 9 5 5 -3 13 0 16 5 5
7 12 5 21 -7 7 -10 14 -16 14 -13 4 15 5 60 2 60 -7 0 -68 -33 -82 -45 -8 -7
-29 -17 -45 -22 -30 -10 -31 -9 -33 19 -1 17 -9 37 -17 45 -19 18 -20 57 -2
50 8 -3 20 -1 27 3 11 7 9 13 -10 28 l-23 19 35 -1 c20 -1 42 -7 51 -14 12
-10 17 -8 31 13 26 40 47 17 39 -43z m-549 42 c3 -8 2 -12 -4 -9 -6 3 -10 10
-10 16 0 14 7 11 14 -7z m166 1 c0 -8 -6 -15 -14 -15 -8 0 -16 7 -20 15 -4 10
1 15 14 15 11 0 20 -7 20 -15z m53 -14 c-6 -3 -13 -22 -17 -42 -8 -47 -26 -62
-78 -68 -14 -2 -38 -33 -37 -49 0 -13 3 -11 9 5 5 12 19 27 32 34 l23 11 -22
-21 c-27 -25 -29 -36 -8 -27 26 9 16 -8 -15 -29 -16 -11 -30 -26 -30 -32 0
-17 -8 -16 -27 2 -13 14 -17 13 -32 -6 -15 -19 -19 -20 -24 -6 -8 20 17 41 42
34 20 -5 39 21 24 32 -4 3 -8 15 -9 26 -1 11 -4 34 -8 50 -5 19 -4 25 2 17 7
-10 11 -10 22 3 19 23 30 18 31 -12 0 -27 1 -26 12 7 9 25 23 40 52 54 22 11
42 23 43 28 2 4 8 5 14 2 6 -4 7 -9 1 -13z m155 -63 c-1 -7 6 -25 16 -41 11
-15 16 -37 14 -52 -3 -13 0 -26 6 -28 5 -2 -4 -11 -22 -19 -31 -16 -33 -16
-60 6 -15 13 -34 21 -42 19 -13 -4 -13 -3 0 6 23 16 60 14 54 -3 -3 -8 -1 -17
5 -21 32 -19 -6 75 -43 108 -11 10 -14 15 -6 10 8 -4 25 -8 37 -8 18 -1 21 3
17 21 -8 30 5 52 18 30 5 -9 8 -22 6 -28z m-365 -7 c-2 -13 1 -20 7 -16 6 4
10 -5 10 -19 0 -14 -6 -26 -12 -27 -10 0 -10 -2 -1 -5 7 -3 10 -13 7 -22 -3
-9 2 -6 11 8 9 14 14 18 11 9 -2 -9 0 -21 5 -26 6 -6 -7 -10 -33 -12 -24 -1
-47 -6 -52 -12 -6 -6 -6 -9 2 -9 7 0 12 -7 12 -15 0 -8 -7 -15 -15 -15 -8 0
-14 3 -14 8 1 4 1 16 0 27 -1 18 -4 17 -22 -8 l-21 -28 -24 26 c-13 14 -24 30
-24 35 0 4 -5 10 -12 12 -6 2 -12 12 -14 22 -2 13 1 14 10 7 7 -6 17 -7 21 -3
5 4 5 1 0 -7 -5 -9 -3 -12 6 -9 8 3 19 -3 25 -14 10 -18 11 -18 28 1 17 19 17
20 -16 37 -19 10 -28 19 -20 22 10 3 7 11 -9 28 -19 21 -20 24 -5 24 9 0 32
-7 51 -14 33 -14 35 -14 35 4 0 14 6 18 28 15 21 -2 26 -7 25 -24z m282 11
c-3 -3 -11 0 -18 7 -9 10 -8 11 6 5 10 -3 15 -9 12 -12z m-55 -112 c-13 -39
-15 -40 -44 -34 -17 4 -40 10 -51 14 -17 7 -15 9 15 17 21 6 42 6 53 1 17 -9
22 4 20 51 -1 9 2 10 10 2 7 -7 7 -22 -3 -51z m700 30 c0 -5 -5 -10 -11 -10
-5 0 -7 5 -4 10 3 6 8 10 11 10 2 0 4 -4 4 -10z m-290 -56 c0 -4 -8 -3 -17 1
-10 4 -34 7 -53 6 -25 -1 -31 2 -21 8 8 5 21 7 29 3 10 -4 13 -1 8 7 -6 8 2 7
23 -3 17 -9 31 -19 31 -22z m-390 -11 c-11 -17 -11 -17 -6 0 3 10 6 24 7 30 0
9 2 9 5 0 3 -7 0 -20 -6 -30z m-400 -23 c0 -5 -5 -10 -11 -10 -5 0 -7 5 -4 10
3 6 8 10 11 10 2 0 4 -4 4 -10z m82 -52 c-2 -10 -13 -18 -24 -18 -10 0 -17 4
-14 9 3 5 -1 12 -10 15 -9 4 -14 9 -11 13 4 3 14 0 22 -7 12 -10 19 -10 27 -2
9 9 9 12 0 12 -7 0 -12 8 -12 17 0 15 2 15 14 -2 7 -10 11 -27 8 -37z m108 32
c8 -11 19 -20 25 -20 11 0 35 -46 35 -69 0 -14 1 -14 10 -1 8 12 10 10 10 -9
0 -24 0 -24 -21 -5 -20 18 -21 18 -34 1 -12 -17 -14 -16 -20 13 -4 20 -2 37 7
48 12 15 11 16 -4 3 -25 -19 -22 -61 7 -101 28 -38 29 -40 15 -40 -5 0 -10 5
-10 11 0 11 -25 39 -35 39 -3 0 -25 -18 -49 -40 l-43 -40 2 30 c1 21 -3 30
-14 30 -11 0 -12 3 -3 12 6 6 32 11 57 10 42 0 57 9 36 22 -5 3 -11 19 -13 36
-4 25 -1 30 16 31 21 0 21 0 -1 15 -18 13 -20 19 -10 30 16 18 20 17 37 -6z
m81 -17 c13 -16 12 -17 -3 -4 -17 13 -22 21 -14 21 2 0 10 -8 17 -17z m319 3
c0 -2 -7 -7 -16 -10 -8 -3 -12 -2 -9 4 6 10 25 14 25 6z m258 -19 c0 -18 -6
-23 -24 -23 l-24 0 22 22 c13 13 24 23 24 23 1 1 2 -9 2 -22z m-434 -22 c15
-11 16 -17 8 -28 -7 -8 -9 -17 -5 -20 3 -4 2 -7 -4 -7 -5 0 -15 11 -21 25 -21
46 -13 57 22 30z m510 -1 c3 -9 6 -25 6 -37 0 -21 36 -54 53 -49 5 1 6 -2 3
-7 -4 -6 -20 -4 -41 5 -19 8 -45 14 -57 15 -13 0 -18 3 -12 5 6 3 9 16 6 29
-7 40 29 73 42 39z m145 -1 c-1 -21 -17 -63 -19 -48 0 6 -7 -1 -14 -15 -8 -14
-12 -29 -9 -34 3 -5 0 -7 -7 -4 -16 5 -25 58 -11 58 6 0 17 14 26 30 17 33 35
40 34 13z m-419 -8 c0 -12 -19 -12 -23 0 -4 9 -1 12 9 8 7 -3 14 -7 14 -8z
m-180 -5 c0 -5 -2 -10 -4 -10 -3 0 -8 5 -11 10 -3 6 -1 10 4 10 6 0 11 -4 11
-10z m-337 -13 c3 -8 -1 -14 -8 -14 -7 0 -11 6 -8 14 3 7 6 13 8 13 2 0 5 -6
8 -13z m854 -19 c-3 -8 -6 -5 -6 6 -1 11 2 17 5 13 3 -3 4 -12 1 -19z m-1031
-25 c-3 -8 1 -28 10 -46 12 -22 13 -32 5 -35 -6 -2 -8 -8 -5 -14 4 -6 1 -8 -7
-6 -8 3 -13 11 -11 17 1 7 -2 9 -8 6 -7 -4 -10 -1 -9 6 1 8 -4 26 -11 42 -12
24 -11 29 6 41 22 16 38 11 30 -11z m881 -8 c24 -10 33 -19 27 -25 -7 -7 -29
-2 -65 14 -46 21 -50 25 -26 25 15 1 44 -6 64 -14z m290 8 c-4 -3 0 -14 8 -24
11 -11 14 -26 9 -43 -9 -38 -24 -32 -24 10 0 19 -4 33 -9 30 -5 -4 -7 3 -4 14
3 11 10 20 16 20 6 0 7 -3 4 -7z m-356 -50 c31 -27 32 -27 27 -5 -3 12 -2 22
3 22 5 0 9 -13 9 -29 0 -17 5 -33 10 -36 6 -4 8 -11 4 -16 -3 -5 -28 9 -56 31
-28 22 -57 40 -64 40 -7 0 -16 5 -19 10 -14 23 55 9 86 -17z m169 13 c0 -17
-14 -29 -23 -20 -8 8 3 34 14 34 5 0 9 -6 9 -14z m-1007 -60 c18 -25 18 -29 4
-23 -9 3 -17 2 -17 -3 0 -5 8 -11 18 -13 10 -3 7 -5 -10 -6 -22 -1 -26 2 -21
16 5 11 3 14 -6 8 -10 -6 -11 -3 -2 14 9 16 9 19 -2 15 -7 -2 -22 5 -33 17
-19 22 -19 22 2 15 15 -5 24 -1 29 11 8 17 8 16 13 -2 2 -11 14 -33 25 -49z
m123 23 c-3 -10 -9 -28 -12 -39 -5 -14 -2 -20 10 -20 9 0 16 5 16 11 0 5 5 7
12 3 9 -6 9 -9 0 -12 -7 -2 -9 -9 -5 -15 10 -16 14 -47 7 -47 -12 0 -49 55
-61 90 -17 48 -9 74 19 59 13 -7 18 -17 14 -30z m-56 27 c0 -3 -4 -8 -10 -11
-5 -3 -10 -1 -10 4 0 6 5 11 10 11 6 0 10 -2 10 -4z m376 -65 l-10 -33 -13 36
c-6 20 -10 43 -6 52 5 13 8 12 23 -3 14 -15 15 -24 6 -52z m499 39 c-3 -5 -13
-10 -22 -10 -11 0 -9 -5 8 -21 l24 -20 -28 17 c-21 13 -25 19 -16 30 13 16 43
19 34 4z m-1074 -17 c13 -16 12 -17 -3 -4 -10 7 -18 15 -18 17 0 8 8 3 21 -13z
m1124 7 c4 -6 10 -8 13 -6 6 4 7 -28 3 -53 -1 -3 -10 5 -21 17 -12 12 -26 22
-32 22 -7 0 -6 5 2 15 15 17 26 19 35 5z m75 -24 c0 -7 -6 -20 -13 -30 -12
-16 -13 -14 -9 18 4 32 22 43 22 12z m-860 -18 c-8 -7 -21 -19 -27 -27 -11
-13 -13 -12 -13 2 0 10 10 22 23 27 31 12 33 12 17 -2z m654 -3 c-4 -8 -10
-15 -15 -15 -5 0 -9 7 -9 15 0 8 7 15 15 15 9 0 12 -6 9 -15z m113 -17 c-3 -8
-6 -5 -6 6 -1 11 2 17 5 13 3 -3 4 -12 1 -19z m-100 -50 c-3 -7 -5 -2 -5 12 0
14 2 19 5 13 2 -7 2 -19 0 -25z m-697 -10 c0 -23 -3 -29 -11 -21 -6 6 -8 20
-4 32 9 30 15 26 15 -11z m806 9 c0 -13 -6 -24 -13 -24 -8 0 -8 7 0 24 13 29
15 29 13 0z m241 -23 c-3 -3 -12 -4 -19 -1 -8 3 -5 6 6 6 11 1 17 -2 13 -5z
m-1367 -19 c0 -16 -27 -32 -37 -21 -7 7 16 36 28 36 5 0 9 -7 9 -15z m647 -7
c-3 -8 -6 -5 -6 6 -1 11 2 17 5 13 3 -3 4 -12 1 -19z m705 5 c-6 -2 -9 -10 -6
-15 4 -7 2 -8 -5 -4 -13 9 -5 26 12 25 9 0 8 -2 -1 -6z m-1052 -7 c0 -2 -11
-6 -25 -8 -14 -3 -25 -1 -25 3 0 5 11 9 25 9 14 0 25 -2 25 -4z m-242 -83
c-17 -21 -38 -15 -38 11 0 29 21 39 37 17 8 -11 8 -20 1 -28z m262 -10 c0 -8
5 -11 12 -7 7 4 8 3 4 -4 -11 -18 -22 -14 -34 13 -9 20 -9 23 3 18 8 -3 15
-12 15 -20z m377 2 c27 -19 28 -58 1 -44 -16 9 -38 39 -38 53 0 10 15 6 37 -9z
m-354 -45 c-3 -12 -8 -19 -11 -16 -5 6 5 36 12 36 2 0 2 -9 -1 -20z m-243 -5
c0 -8 -4 -15 -10 -15 -5 0 -10 7 -10 15 0 8 5 15 10 15 6 0 10 -7 10 -15z
m152 -9 c7 4 10 3 5 -1 -4 -5 3 -20 15 -34 17 -17 11 -15 -19 9 -24 18 -43 35
-43 38 0 2 7 -1 15 -8 8 -6 20 -8 27 -4z m-1062 -43 c0 -22 -2 -25 -10 -13
-13 20 -13 40 0 40 6 0 10 -12 10 -27z m1762 0 c-5 -27 -32 -31 -32 -5 0 22 5
29 23 29 9 0 12 -9 9 -24z m-1365 -5 c-3 -8 -6 -5 -6 6 -1 11 2 17 5 13 3 -3
4 -12 1 -19z m-330 -10 c-3 -8 -6 -5 -6 6 -1 11 2 17 5 13 3 -3 4 -12 1 -19z
m-232 2 c3 -5 2 -10 -4 -10 -5 0 -13 5 -16 10 -3 6 -2 10 4 10 5 0 13 -4 16
-10z"/>
<path d="M94 1309 c-3 -6 -2 -15 3 -20 5 -5 9 -1 9 11 0 23 -2 24 -12 9z"/>
<path d="M2494 1300 c0 -13 4 -16 10 -10 7 7 7 13 0 20 -6 6 -10 3 -10 -10z"/>
<path d="M2020 776 c0 -26 4 -36 13 -33 14 5 12 46 -3 61 -7 7 -10 -3 -10 -28z"/>
<path d="M2244 768 l-19 -23 23 19 c21 18 27 26 19 26 -2 0 -12 -10 -23 -22z"/>
<path d="M2194 734 c-18 -14 -18 -15 4 -4 12 6 22 13 22 15 0 8 -5 6 -26 -11z"/>
<path d="M2320 379 c0 -5 5 -7 10 -4 6 3 10 8 10 11 0 2 -4 4 -10 4 -5 0 -10
-5 -10 -11z"/>
</g>
</svg>
